<svg width="114" height="26" viewBox="0 0 114 26" fill="none" xmlns="http://www.w3.org/2000/svg">
<g clip-path="url(#clip0_188_2)">
<path fill-rule="evenodd" clip-rule="evenodd" d="M5.50929 3.00258H8.27665L7.72149 5.62774C7.34685 5.85899 6.94187 6.0382 6.51792 6.16032C6.05359 6.30056 5.57097 6.37261 5.0855 6.37419C4.4531 6.42245 3.82428 6.24381 3.31405 5.87096C3.02633 5.6176 2.80054 5.30288 2.65371 4.95055C2.50688 4.59822 2.44286 4.21749 2.46647 3.83709C2.46392 3.23774 2.58957 2.64464 2.83517 2.09677C3.08909 1.48798 3.51415 0.964043 4.05992 0.587092C4.61104 0.215401 5.26636 0.0246793 5.93308 0.0419307C6.5464 0.0118836 7.15219 0.186108 7.65368 0.536769C8.1013 0.89843 8.40221 1.4076 8.50126 1.97096L7.31888 2.09677C7.23885 1.79033 7.06219 1.51711 6.81457 1.31677C6.55823 1.13572 6.24764 1.04558 5.93308 1.06096C5.51316 1.05126 5.10062 1.17123 4.75277 1.4042C4.40493 1.63718 4.13906 1.97159 3.99212 2.36096C3.79376 2.81924 3.69417 3.31342 3.6997 3.81193C3.66541 4.22333 3.79294 4.63195 4.05569 4.95258C4.19177 5.0821 4.3536 5.18217 4.5309 5.24643C4.7082 5.31069 4.89707 5.33772 5.0855 5.3258C5.37214 5.32544 5.65736 5.28593 5.93308 5.20838C6.18918 5.14321 6.43773 5.05186 6.67472 4.9358L6.86543 4.0258H5.2974L5.50929 3.00258Z" fill="white"/>
<path fill-rule="evenodd" clip-rule="evenodd" d="M9.65821 1.83259H10.7897L10.5948 2.69646C11.0186 2.05066 11.4763 1.72775 11.9679 1.72775C12.1613 1.73359 12.3515 1.7778 12.5273 1.85775L12.0781 2.83904C11.9119 2.78305 11.7341 2.76984 11.5613 2.80066C11.3886 2.83147 11.2266 2.90529 11.0906 3.01517C10.8739 3.17789 10.7031 3.39307 10.5948 3.64001C10.4296 4.04542 10.3088 4.46718 10.2346 4.89808L9.92944 6.29033H8.71739L9.65821 1.83259Z" fill="white"/>
<path fill-rule="evenodd" clip-rule="evenodd" d="M13.0825 1.83258H14.2945L13.7393 4.46194C13.6908 4.65629 13.6568 4.85392 13.6376 5.05323C13.6377 5.11562 13.6509 5.1773 13.6765 5.23435C13.702 5.29139 13.7393 5.34253 13.7859 5.38452C13.8847 5.47526 14.0158 5.52352 14.1504 5.51871C14.259 5.51752 14.3665 5.49766 14.4683 5.46C14.5838 5.41363 14.6922 5.35152 14.7903 5.27548C14.8989 5.19381 14.9971 5.09947 15.0828 4.99452C15.1839 4.86664 15.2666 4.72551 15.3286 4.57516C15.404 4.37063 15.4622 4.16022 15.5023 3.94613L15.9515 1.84935H17.1636L16.227 6.29032H15.0955L15.2184 5.68645C15.0086 5.90111 14.7579 6.07244 14.4807 6.1905C14.2035 6.30855 13.9055 6.37099 13.6037 6.37419C13.4418 6.38595 13.2791 6.36445 13.126 6.31105C12.9728 6.25765 12.8325 6.17349 12.7138 6.06387C12.6057 5.95296 12.5218 5.82132 12.4671 5.67707C12.4124 5.53282 12.3882 5.37903 12.3959 5.22516C12.4203 4.91585 12.4684 4.60883 12.54 4.30677L13.0825 1.83258Z" fill="white"/>
<path fill-rule="evenodd" clip-rule="evenodd" d="M20.965 4.54162C20.8796 4.81649 20.7198 5.06302 20.5031 5.25453C20.3364 5.38409 20.1301 5.45361 19.9182 5.45162C19.8034 5.45138 19.6901 5.42563 19.5867 5.37627C19.4833 5.32692 19.3924 5.25522 19.3207 5.16646C19.1425 4.94287 19.0535 4.66231 19.0706 4.37807C19.0792 4.09221 19.1321 3.80934 19.2274 3.53937C19.3007 3.26564 19.4471 3.01649 19.6512 2.81807C19.8239 2.66221 20.049 2.5755 20.2827 2.57485C20.3984 2.57152 20.5135 2.59346 20.6197 2.63913C20.7259 2.68479 20.8207 2.75305 20.8972 2.83904C21.0714 3.05458 21.1576 3.32691 21.1387 3.60227C21.1318 3.91961 21.0687 4.23329 20.9523 4.52904L20.965 4.54162ZM21.9016 2.21001C21.7605 2.05106 21.5853 1.92528 21.3888 1.84185C21.1923 1.75842 20.9795 1.71944 20.7658 1.72775C20.5307 1.72757 20.2977 1.77169 20.0793 1.85775C19.8284 1.97185 19.5956 2.1216 19.3885 2.30227L19.4944 1.86195H18.3375L17.1 7.70775L17.901 6.68453L18.3248 7.69517L18.7486 5.66549C18.8874 5.89352 19.0859 6.08017 19.3231 6.20567C19.5604 6.33117 19.8275 6.39085 20.0962 6.3784C20.3865 6.37978 20.6735 6.31685 20.936 6.19422C21.1985 6.07159 21.43 5.89236 21.6134 5.66969C22.1096 5.1113 22.3731 4.38741 22.3508 3.6442C22.3851 3.12766 22.2251 2.61681 21.9016 2.21001Z" fill="white"/>
<path fill-rule="evenodd" clip-rule="evenodd" d="M26.3556 3.57289C26.3614 3.44828 26.3424 3.32375 26.2995 3.20645C26.2565 3.08915 26.1907 2.98139 26.1056 2.88934C26.0216 2.80305 25.9198 2.73557 25.8073 2.69144C25.6947 2.64732 25.5739 2.62757 25.4529 2.63354C25.2 2.62923 24.9537 2.71394 24.7579 2.87257C24.5375 3.05659 24.3732 3.2976 24.2833 3.5687C24.1797 3.83692 24.1224 4.12042 24.1137 4.40741C24.1004 4.68303 24.1945 4.9532 24.3765 5.16225C24.4595 5.25344 24.5617 5.32549 24.676 5.37331C24.7902 5.42113 24.9137 5.44356 25.0376 5.43902C25.2026 5.44173 25.3657 5.40503 25.5133 5.33202C25.6608 5.25902 25.7884 5.15187 25.8852 5.01967C26.2125 4.60503 26.3833 4.09041 26.3683 3.56451L26.3556 3.57289ZM22.8848 4.43257C22.849 3.70971 23.1016 3.00188 23.5882 2.4616C23.8268 2.21767 24.1147 2.02623 24.4331 1.89978C24.7514 1.77333 25.0932 1.71471 25.436 1.72773C25.7179 1.71106 26.0004 1.75034 26.2667 1.84324C26.5331 1.93614 26.778 2.08079 26.9871 2.2687C27.1766 2.46086 27.3241 2.68962 27.4204 2.94071C27.5166 3.1918 27.5596 3.45982 27.5465 3.72805C27.5577 4.41479 27.3082 5.08073 26.8472 5.59418C26.6166 5.85012 26.3319 6.05268 26.0133 6.18748C25.6947 6.32229 25.35 6.38603 25.0037 6.37418C24.6146 6.38326 24.2291 6.29833 23.8807 6.12676C23.5671 5.97266 23.3105 5.72468 23.1475 5.41805C22.9803 5.11556 22.8901 4.77731 22.8848 4.43257Z" fill="white"/>
<path fill-rule="evenodd" clip-rule="evenodd" d="M24.3468 15.6713H21.6388L22.4101 12.0271L25.2495 12.0061C26.4658 12.0061 27.0464 12.7903 27.0125 13.6248C26.9786 14.4594 26.2115 15.6629 24.3468 15.6629V15.6713ZM31.3606 11.5113C31.2612 11.0356 31.0658 10.5847 30.7862 10.1855C30.5066 9.78635 30.1485 9.44709 29.7332 9.18807C28.7966 8.64622 27.7238 8.37864 26.6395 8.41645H18.7867L18.7274 8.74774L19.9987 11.8594H18.134L15.5277 25.5261H19.8038L20.9014 19.3742L23.2704 19.3532C24.3726 19.3824 25.4746 19.2867 26.5548 19.0681C27.8017 18.758 28.9228 18.0775 29.7671 17.1181C30.4197 16.4443 30.9006 15.6263 31.1699 14.7319C31.445 13.681 31.5098 12.5869 31.3606 11.5113Z" fill="white"/>
<path fill-rule="evenodd" clip-rule="evenodd" d="M40.1543 15.9019L48.3123 15.9355L46.7654 23.1065C45.8288 23.6852 44.5448 24.5574 43.1844 24.96C41.8458 25.3913 40.4512 25.6286 39.0439 25.6645C36.8487 25.6645 35.1069 25.2452 33.9584 24.3016C32.3565 23.0058 31.6106 21.1565 31.6106 18.6948C31.6327 17.0274 32.0081 15.383 32.7125 13.8681C33.5456 12.1415 34.8489 10.6791 36.4758 9.64516C38.1441 8.61593 40.0787 8.08853 42.0444 8.1271C44.0998 8.1271 45.4983 8.58 46.74 9.49419C47.9817 10.4084 48.5157 11.7671 48.5157 13.6877L44.2778 14.4384C44.121 13.4403 44.1549 12.5471 42.519 11.9977C41.4002 11.6161 39.6245 12.0187 38.6159 12.5932C36.4969 13.8052 35.8824 17.2061 35.8824 18.6571C35.8824 20.1081 36.5817 22.0581 39.0312 22.0581C41.4807 22.0581 42.4216 21.169 43.0106 20.8755L43.248 19.5042L39.4974 19.5335L40.1543 15.9019Z" fill="white"/>
<path fill-rule="evenodd" clip-rule="evenodd" d="M54.5547 15.2603C54.5547 15.2603 56.4024 15.2603 58.5468 15.2603C59.0672 15.3016 59.5834 15.1409 59.986 14.8121C60.3886 14.4834 60.6461 14.0124 60.7039 13.499C60.8946 12.3374 60.3225 12.0564 58.8901 12.0564C55.8219 12.0564 55.1438 12.0564 55.1438 12.0564L54.5547 15.2519V15.2603ZM52.512 25.3752H48.2741L51.5967 8.38708H59.6487C60.6895 8.35225 61.7287 8.49409 62.7212 8.80644C63.4613 9.08119 64.0847 9.59744 64.4884 10.27C64.9547 11.051 65.1883 11.9465 65.1622 12.8532C65.1622 14.2958 64.3909 15.5119 63.5179 16.4471C62.6449 17.3822 62.1533 17.6045 60.5175 18.1832C61.1193 18.5145 61.3651 18.9968 61.7465 19.651C62.5347 20.9803 63.2806 22.9597 64.2468 25.3835H59.4241C59.119 24.419 56.7584 20.129 56.7584 20.129C56.3346 19.3826 56.0761 19.0261 55.6905 18.871C55.0842 18.7726 54.4694 18.7347 53.8555 18.7577L52.512 25.3752Z" fill="white"/>
<path fill-rule="evenodd" clip-rule="evenodd" d="M74.6721 18.1874L73.8245 13.9939L71.481 18.1455L74.6806 18.1748L74.6721 18.1874ZM75.3968 21.7352H69.4637L67.3448 25.3752H62.8314L72.8286 8.38708H77.0284L80.673 25.3668H76.1723L75.3968 21.7352Z" fill="white"/>
<path fill-rule="evenodd" clip-rule="evenodd" d="M86.0001 21.8064H89.3311C89.9186 21.7845 90.4889 21.6046 90.9809 21.2862C91.4729 20.9678 91.868 20.5228 92.1239 19.999C92.785 18.8039 93.5987 15.5958 93.2893 13.7422C93.1573 13.2788 92.8819 12.8678 92.5019 12.567C92.1219 12.2661 91.6563 12.0905 91.1703 12.0648H87.8817L86.0001 21.8064ZM81.0714 25.3752L84.3558 8.38708H89.2845C90.5558 8.38708 91.4034 8.44579 91.7552 8.44579C95.4294 8.44579 96.6669 10.6264 96.9763 11.1884C97.612 12.3374 97.773 14.149 97.6713 15.4281C97.5883 17.1015 97.1751 18.7426 96.455 20.259C95.8465 21.576 94.9489 22.7421 93.8275 23.6726C92.8344 24.3767 91.7022 24.8654 90.505 25.1068C89.3872 25.3108 88.2507 25.3966 87.1147 25.3626L81.0714 25.3752Z" fill="white"/>
<path fill-rule="evenodd" clip-rule="evenodd" d="M97.3958 25.3752L100.757 8.39548H113.886L113.169 12.0523H104.287L103.757 14.7655H112.097L111.356 18.33H103.041L102.401 21.8652H111.559L110.919 25.3752H97.3958Z" fill="white"/>
<path fill-rule="evenodd" clip-rule="evenodd" d="M13.8877 11.8593L16.3668 8.66386L12.2561 8.60095L10.527 17.8687C10.3206 18.9525 9.97747 20.0063 9.50566 21.0055C9.20476 21.6303 8.3148 22.318 6.46707 22.1377C4.61934 21.9574 4.44134 21.0977 4.43711 20.2674C4.47978 19.4505 4.58175 18.6376 4.74224 17.8351L6.68744 8.65127H2.35629L0.7035 17.5122C0.457701 18.6697 0.300898 19.4245 0.279709 19.6719C0.227446 20.0106 0.200533 20.3526 0.199188 20.6951C0.199188 22.2174 0.432274 23.4922 1.49175 24.4693C2.55123 25.4464 4.16164 25.8616 6.15346 25.8616C7.8232 25.8616 9.56923 25.5471 10.6923 24.939C11.8281 24.4014 12.7617 23.5202 13.3579 22.4229C14.0261 21.0099 14.5062 19.5171 14.7861 17.9819L16.0575 11.8845L13.8877 11.8593Z" fill="white"/>
</g>
<defs>
<clipPath id="clip0_188_2">
<rect width="114" height="26" fill="white"/>
</clipPath>
</defs>
</svg>
